<svg xmlns="http://www.w3.org/2000/svg" version="1.1" xmlns:xlink="http://www.w3.org/1999/xlink" xmlns:svgjs="http://svgjs.dev/svgjs" width="1000" height="265" viewBox="0 0 1000 265"><g transform="matrix(1,0,0,1,-0.6060606060606233,0.14191662410806316)"><svg viewBox="0 0 396 105" data-background-color="#ffffff" preserveAspectRatio="xMidYMid meet" height="265" width="1000" xmlns="http://www.w3.org/2000/svg" xmlns:xlink="http://www.w3.org/1999/xlink"><g id="tight-bounds" transform="matrix(1,0,0,1,0.2400000000000091,-0.05623111521262558)"><svg viewBox="0 0 395.52 105.11246223042527" height="105.11246223042527" width="395.52"><g><svg viewBox="0 0 625.7093771523105 166.28704812182735" height="105.11246223042527" width="395.52"><g transform="matrix(1,0,0,1,230.18937715231056,51.38511150899859)"><svg viewBox="0 0 395.52 63.516825103830165" height="63.516825103830165" width="395.52"><g><svg viewBox="0 0 395.52 63.516825103830165" height="63.516825103830165" width="395.52"><g><svg viewBox="0 0 395.52 63.516825103830165" height="63.516825103830165" width="395.52"><g transform="matrix(1,0,0,1,0,0)"><svg width="395.52" viewBox="0.9 -34.15 216.68 34.8" height="63.516825103830165" data-palette-color="#82cd47"><path d="M25.8-9.45L25.95-0.65Q20.65 0.65 15.1 0.65 9.55 0.65 6.55-0.93 3.55-2.5 2.23-6.2 0.9-9.9 0.9-16.85L0.9-16.85Q0.9-26.8 3.98-30.48 7.05-34.15 15.7-34.15L15.7-34.15Q19.3-34.15 24.2-33.15L24.2-33.15 25.95-32.8 25.65-23.85Q21.55-24.35 18.07-24.35 14.6-24.35 13.6-23.03 12.6-21.7 12.6-17.55 12.6-13.4 13.08-11.8 13.55-10.2 14.6-9.68 15.65-9.15 18-9.15L18-9.15 25.8-9.45ZM57.9 0L46.3 0 46.3-11.7 39.75-11.7 39.75 0 28.15 0 28.15-33.5 39.75-33.5 39.75-21.15 46.3-21.15 46.3-33.5 57.9-33.5 57.9 0ZM70.55 0L59.15 0 66.55-33.5 84.09-33.5 91.65 0 79.95 0 79-3.85 71.34-3.85 70.55 0ZM76-24.4L74.75-24.4 72.84-12.7 77.8-12.7 76-24.4ZM95.84-24.05L88.94-24.05 88.94-33.5 113.94-33.5 113.94-24.05 107.44-24.05 107.44 0 95.84 0 95.84-24.05ZM136.34 0L124.94 0 132.34-33.5 149.89-33.5 157.44 0 145.74 0 144.79-3.85 137.14-3.85 136.34 0ZM141.79-24.4L140.54-24.4 138.64-12.7 143.59-12.7 141.79-24.4ZM171.79-7.1L171.79-7.1 170.24-7.1 170.24 0 158.64 0 158.64-33.5 171.79-33.5Q179.74-33.5 183.36-30.75 186.99-28 186.99-20.43 186.99-12.85 183.34-9.98 179.69-7.1 171.79-7.1ZM170.24-24.35L170.24-16.25 171.29-16.25Q173.44-16.25 174.36-17.2 175.29-18.15 175.29-20.45 175.29-22.75 174.41-23.55 173.54-24.35 171.29-24.35L171.29-24.35 170.24-24.35ZM202.38-7.1L202.38-7.1 200.83-7.1 200.83 0 189.23 0 189.23-33.5 202.38-33.5Q210.33-33.5 213.96-30.75 217.58-28 217.58-20.43 217.58-12.85 213.93-9.98 210.28-7.1 202.38-7.1ZM200.83-24.35L200.83-16.25 201.88-16.25Q204.03-16.25 204.96-17.2 205.88-18.15 205.88-20.45 205.88-22.75 205.01-23.55 204.13-24.35 201.88-24.35L201.88-24.35 200.83-24.35Z" opacity="1" transform="matrix(1,0,0,1,0,0)" fill="#82cd47" class="undefined-text-0" data-fill-palette-color="primary" id="text-0"></path></svg></g></svg></g></svg></g></svg></g><g><svg viewBox="0 0 215.19457914909876 166.28704812182735" height="166.28704812182735" width="215.19457914909876"><g><svg xmlns="http://www.w3.org/2000/svg" xmlns:xlink="http://www.w3.org/1999/xlink" version="1.1" x="0" y="0" viewBox="5.443 15.316 89.50100000000002 69.16000000000001" enable-background="new 0 0 100 100" xml:space="preserve" height="166.28704812182735" width="215.19457914909876" class="icon-icon-0" data-fill-palette-color="accent" id="icon-0"><path d="M87.62 33.304v2.902c2.507 0.452 4.423 2.641 4.423 5.28l-0.006 39.309-8.999-9.002H38.143c-2.625 0-4.809-1.893-5.276-4.38h-2.902c0.498 4.091 3.953 7.282 8.178 7.282h43.694l8.403 8.403c0.941 0.941 1.752 1.378 2.557 1.378 1.34 0 2.094-1.168 2.147-2.387V41.486C94.944 37.247 91.731 33.782 87.62 33.304z" fill="#b5ff78" data-fill-palette-color="accent"></path><path d="M76.014 64.512c4.809 0 8.704-3.899 8.704-8.705V24.021c0-4.807-3.896-8.705-8.704-8.705H14.148c-4.807 0-8.705 3.897-8.705 8.705v25.136 6.65 19.982c0 0 0.121 2.697 2.841-0.023l11.256-11.254H76.014z" fill="#b5ff78" data-fill-palette-color="accent"></path></svg><g></g></g></svg></g></svg></g><defs></defs></svg><rect width="395.52" height="105.11246223042527" fill="none" stroke="none" visibility="hidden"></rect></g></svg></g></svg>